<?xml version="1.0" encoding="utf-8"?>
<!-- Generator: Adobe Illustrator 24.0.1, SVG Export Plug-In . SVG Version: 6.00 Build 0)  -->
<svg version="1.1" id="Layer_3" xmlns="http://www.w3.org/2000/svg" xmlns:xlink="http://www.w3.org/1999/xlink" x="0px" y="0px"
	 viewBox="0 0 1232.9 675" style="enable-background:new 0 0 1232.9 675;" xml:space="preserve">
<style type="text/css">
	.st0{fill:#FB0331;}
	.st1{fill:#FB950A;}
	.st2{fill:#FBF409;}
	.st3{fill:#53D657;}
	.st4{fill:#2EACD9;}
	.st5{fill:#A388D1;}
	.st6{fill:none;stroke:#FFFFFF;stroke-width:3;stroke-miterlimit:10;}
	.st7{fill:url(#inside_ray_1_);}
	.st8{fill:none;}
</style>
<title>pinkfloyd2</title>
<path id="ray1" class="st0" d="M695.3,283.4c179.2,25.2,358.4,50.3,537.7,75.5c0,6.5,0,13,0,19.5c-176.1-27.1-352.1-54.1-528.2-81.2
	L695.3,283.4z"/>
<path id="ray2" class="st1" d="M704.4,296.6c176.2,27.3,352.3,54.5,528.5,81.8c0,6.8,0,13.6,0,20.4c-173.1-29.5-346.2-59-519.3-88.5
	L704.4,296.6z"/>
<path id="ray3" class="st2" d="M713.5,310.1c173.1,29.5,346.3,59.1,519.4,88.6c0,6.8,0,13.5,0,20.3c-170.2-31.7-340.3-63.3-510.4-95
	L713.5,310.1z"/>
<path id="ray4" class="st3" d="M722.2,323.7c170.3,31.8,340.5,63.6,510.8,95.4c0,6.6,0,13.3,0,19.9
	c-167.3-33.7-334.7-67.5-502-101.2L722.2,323.7z"/>
<path id="ray5" class="st4" d="M731,337.7c167.3,33.7,334.6,67.5,501.9,101.2c0,6.3,0,12.6,0,19c-164.5-35.4-328.9-70.7-493.4-106.1
	L731,337.7z"/>
<path id="ray6" class="st5" d="M739.3,351.4l493.6,106.5c0,6.8,0,13.6,0,20.4c-161.7-37.5-323.5-75.1-485.2-112.6L739.3,351.4z"/>
<polygon id="triangle" class="st6" points="618.9,155 831.9,520.2 404.7,520.2 "/>
<line id="main_ray" class="st6" x1="1.1" y1="460.9" x2="520" y2="323.7"/>
<linearGradient id="inside_ray_1_" gradientUnits="userSpaceOnUse" x1="890.41" y1="72.67" x2="976.67" y2="72.67" gradientTransform="matrix(1 0 0 -1 -370.78 392.34)">
	<stop  offset="0" style="stop-color:#FFFFFF"/>
	<stop  offset="0.12" style="stop-color:#FBFBFB;stop-opacity:0.99"/>
	<stop  offset="0.25" style="stop-color:#EFEFEF;stop-opacity:0.94"/>
	<stop  offset="0.37" style="stop-color:#DADADA;stop-opacity:0.87"/>
	<stop  offset="0.5" style="stop-color:#BDBDBD;stop-opacity:0.77"/>
	<stop  offset="0.63" style="stop-color:#989898;stop-opacity:0.64"/>
	<stop  offset="0.76" style="stop-color:#6A6A6A;stop-opacity:0.48"/>
	<stop  offset="0.89" style="stop-color:#363636;stop-opacity:0.29"/>
	<stop  offset="1" style="stop-color:#000000;stop-opacity:0.1"/>
</linearGradient>
<path id="inside_ray" class="st7" d="M525.5,317l80.4-15.5c-6.7,12.1-13.3,24.2-20,36.3l-66.3-10.3L525.5,317z"/>
<rect class="st8" width="1201.9" height="675"/>
</svg>
