<?xml version="1.0" encoding="utf-8"?>
<!-- Generator: Adobe Illustrator 24.0.1, SVG Export Plug-In . SVG Version: 6.00 Build 0)  -->
<svg version="1.1" xmlns="http://www.w3.org/2000/svg" xmlns:xlink="http://www.w3.org/1999/xlink" x="0px" y="0px"
	 viewBox="0 0 450 253" style="enable-background:new 0 0 450 253;" xml:space="preserve">
<style type="text/css">
	.st0{fill:#D40000;}
</style>
<g id="Layer_1">
	<g>
		<path id="body" d="M278.4,124.6c-5.3-10.8-13-13.2-23.9-7.5c-6,3.2-9.9,3.2-9.3,0.2c0.2-1,2-2.6,4.1-3.7c2.6-1.4,3.5-2.4,3-3.5
			c-0.4-0.8-0.6-6.7-0.4-13c0.1-6.6-0.2-12.7-0.8-14.3c-1.1-2.8-7-9.1-10.2-10.8c-0.9-0.4-2-2.5-2.4-4.6c-0.8-4.7-4.2-9.8-7.3-11.2
			c-4-1.9-11.7-1.1-14.3,1c-1.9,1.1-3.7,2.1-5.6,3.2c0.9-0.4,1.7-0.7,2.3-1c1.2-0.5,1.9-0.7,2.4-0.7c-0.2,1.3-10.8,8.4-12.6,8.4
			c-0.5,0-2.7-2.9-4.9-6.5c-3.7-6.2-6.4-8-8-5.5c-0.3,0.6,1.9,4.7,5.1,9.1c4.5,6.4,5.4,8.3,4.3,9c-1.2,0.7-7.1,1.3-11.6,1.2
			c-0.7-0.1-1.3,0.3-1.3,0.7c0,0.5-0.9,1.1-2,1.5c-2.4,0.8-12.3,8.5-11.7,9.1c0.3,0.3,3.1-1.3,6.3-3.6c6-4.2,9.3-5.4,18-6.5
			c4.7-0.6,5.3-0.4,6.8,1.7c1.6,2.2,1.5,2.4-0.4,4c-2.8,2.3-5,7.9-5,12.9c0,2.3-0.8,6.7-1.7,9.7l-1.7,5.4l2.7,2.4
			c1.6,1.3,3.4,2.4,4.2,2.4s2,1,2.6,2.2c1,1.9,0.9,2.4-1,3.6c-1.1,0.8-2.1,2.1-2.1,2.8c0,1.1-0.7,1.2-2.7,0.7
			c-1.6-0.5-6.4-0.8-10.8-0.8c-7.9,0-8,0-9.4,3c-0.8,1.6-1.7,5.6-1.9,8.7c-0.4,5-0.2,5.9,2.1,8.2c1.5,1.4,3.5,2.6,4.6,2.6
			c1.1,0,2.9,1.3,4.1,3c1.2,1.6,2.8,3,3.6,3c0.8,0,2.4,1,3.5,2.1c2.1,2.1,2.3,2.1,4.9,0.5c1.6-0.9,3.5-1.6,4.3-1.6
			c2.2,0,6.6,2.5,8.2,4.6c1.1,1.6,1.1,2.2-0.4,4.4c-1.6,2.2-1.7,3.6-0.8,12.3c0.8,8.5,0.7,10-0.7,11.6c-1.8,2-2.2,10.6-0.6,11.6
			c0.7,0.5,1,5.1,1,10.3v46.7h31.9c0-15,0.1-30,0.1-45c0.4-30.4,0.2-44.5-1-48c-0.7-2-1-3.7-0.8-3.9c0.1-0.1,2.7-1.9,5.6-4
			c4.9-3.5,5.6-3.7,10.1-3.1c4.4,0.6,5,0.4,6.8-2c1-1.5,4.3-3.9,7.2-5.3c4.1-2.1,6-3.8,7.8-7.2l2.5-4.5L278.4,124.6z M207.8,75.8
			c-0.8-1.3-1.6-2.7-2.4-4c1-0.7,2-1.4,3.1-2.1c0,0.2,0,0.4,0,0.7c-0.1,1.4-0.8,1.8-0.6,2.6c0.2,0.9,1.3,1,1.3,1.7
			C209.1,75.1,208.4,75.5,207.8,75.8z M225.6,157c0.2,0,0.6,0,1.1,0c0.2,0,0.4,0,0.8,0c0.4,0,0.5,0,0.9,0c0.5,0,0.7,0,1.1,0
			c0.8-0.1,1-0.2,1.1-0.1c0.2,0.2,0.1,0.7,0,1.2c-0.2,0.6-0.3,0.7-0.3,1.1c0,0.4,0.1,0.3,0.1,0.9c0,0.4,0,0.3,0,1c0,0.5,0,0.7,0,0.9
			c0,0.3,0.1,0.4,0,0.5c0,0.1-0.1,0.2-0.6,0.4c-0.4,0.3-0.4,0.2-0.5,0.3c-0.1,0.2-0.1,0.3-0.2,0.9c-0.1,0.4-0.1,0.4-0.2,0.9
			c-0.1,0.3,0,0.4-0.1,0.4c-0.3,0.4-1.3,0.4-1.6,0c-0.3-0.4,0.2-0.7-0.1-1.4c-0.1-0.2-0.4-0.6-0.4-0.6c-0.5-0.9-0.7-1.1-0.7-1.1
			c-0.2-0.2-0.4-0.3-0.6-0.4c-0.2-0.1-0.5-0.3-0.5-0.3c0,0-0.5-0.6-0.6-0.7c-0.3-0.3-0.5-1-0.6-2.7c0-0.5,0-0.9,0-1.4
			C224.5,157,225.1,157,225.6,157z"/>
		<g id="eyes">
			<path class="st0" d="M227.6,77.4c0.4,0.1,0.7,0.3,1.1,0.4c0.2,0,1.3-0.1,1.9-0.9c0.2-0.2,0.3-0.5,0.3-0.7
				C229.8,76.6,228.7,77,227.6,77.4z"/>
			<path class="st0" d="M218.9,76.9c0.6,0.9,1.7,0.9,1.9,0.9c0.4-0.1,0.7-0.3,1.1-0.4c-1.1-0.4-2.2-0.8-3.3-1.2
				C218.7,76.4,218.8,76.7,218.9,76.9z"/>
		</g>
	</g>
</g>
<g id="Layer_2">
	<path id="birdl13" d="M158.8,37.7c0.1-0.3,0.4-0.6,0.3-0.7c-0.1-0.1-0.8,0-1.6,0c-0.8,0-1.9-0.4-2.2-0.4c-0.3,0-0.6-0.7-0.7-0.8
		c0-0.1-0.1-0.6-0.2-0.9c-0.1-0.3,0.3-1.2,0.3-1.4c0-0.2,0.3-0.4,0.3-0.8c0-0.4,0.3-1.6,0.3-2.1c0-0.5,0.9-1.8,1.1-1.9
		c0.2-0.1,0.4-0.8,0.4-1.1c0-0.3,0.1-0.9,0.4-1.2c0.3-0.2,0-0.9,0.3-1.2c0.3-0.4,0.1-0.2,0.1-0.6c0-0.4,0.6-1.4,0.7-1.8
		c0.1-0.4,0.3-1.2,0.1-2.1c-0.1-1-0.2-1-0.6-0.3c-0.4,0.8-1.2,2.2-2.5,3.9c-1.3,1.6-4.1,3.8-4.5,4.2c-0.4,0.4-0.1,4.1-0.2,5
		c-0.1,0.9-0.5,1.4-0.6,1.5c-0.8,0.6-1.9-0.2-2.9,0.5c-0.2,0.1-0.4,0.3-0.4,0.4c-0.3,0.1-0.7,0.3-0.6,0.4c0,0.1,0.6,0.1,0.7,0.2
		c0.1,0.1,0.4,0.3,0.5,0.3c0.1,0.1,0.5,0.4,0.5,0.6c0,0.3-0.9,0.7-2,1.2c-1.1,0.5-3.2,1.4-3.6,1.6c-0.4,0.2-0.9,1.1-1.1,1.7
		c-0.3,0.6-1,2.7-2.1,3.4c-1.1,0.7-1,0.6-1,0.8c0,0.2,1-0.2,1.1-0.1c0.1,0.1,0.5,0,0.7-0.3c0.2-0.3,0.5-0.4,0.9-0.5
		c0.4-0.1,0.7-0.3,0.9-0.7c0.2-0.3,0.8-0.4,1-0.6c0.2-0.3,0.7-0.3,1-0.6c0.3-0.3,0.5-0.6,0.9-0.7c0.4-0.1,0.7-0.6,0.8-0.8
		c0.1-0.2,0.5-0.1,0.7-0.2c0.2-0.1,0.3-0.4,0.4-0.7c0.1-0.3,1-0.5,1.2-0.6c0.2-0.2,1.2-0.4,1.7-0.6c0.5-0.2,1-0.7,1.4-0.8
		c0.4,0,0.8,0.1,1.6,0.1c0.7,0,1.9-0.2,2.5-0.4c0.5-0.2,1.7,0.6,2,0.7c0.3,0.1,0.8,0.4,1.1,0.3c0.3-0.1,0.2-0.3,0.3-0.6
		c0-0.3,0.2-0.2,0.5-0.4C158.8,38.2,158.7,38,158.8,37.7z"/>
	<path id="birdl12" d="M187.2,27.4c0.1-0.3,0.4-0.6,0.3-0.7c-0.1-0.1-0.8,0-1.6,0c-0.8,0-1.9-0.4-2.2-0.4c-0.3,0-0.6-0.7-0.7-0.8
		c0-0.1-0.1-0.6-0.2-0.9c-0.1-0.3,0.3-1.2,0.3-1.4c0-0.2,0.3-0.4,0.3-0.8c0-0.4,0.3-1.6,0.3-2.1c0-0.5,0.9-1.8,1.1-1.9
		c0.2-0.1,0.4-0.8,0.4-1.1c0-0.3,0.1-0.9,0.4-1.2c0.3-0.2,0-0.9,0.3-1.2c0.3-0.4,0.1-0.2,0.1-0.6c0-0.4,0.6-1.4,0.7-1.8
		c0.1-0.4,0.3-1.2,0.1-2.1c-0.1-1-0.2-1-0.6-0.3c-0.4,0.8-1.2,2.2-2.5,3.9c-1.3,1.6-4.1,3.8-4.5,4.2c-0.4,0.4-0.1,4.1-0.2,5
		c-0.1,0.9-0.5,1.4-0.6,1.5c-0.8,0.6-1.9-0.2-2.9,0.5c-0.2,0.1-0.4,0.3-0.4,0.4c-0.3,0.1-0.7,0.3-0.6,0.4c0,0.1,0.6,0.1,0.7,0.2
		c0.1,0.1,0.4,0.3,0.5,0.3c0.1,0.1,0.5,0.4,0.5,0.6c0,0.3-0.9,0.7-2,1.2c-1.1,0.5-3.2,1.4-3.6,1.6c-0.4,0.2-0.9,1.1-1.1,1.7
		c-0.3,0.6-1,2.7-2.1,3.4c-1.1,0.7-1,0.6-1,0.8c0,0.2,1-0.2,1.1-0.1c0.1,0.1,0.5,0,0.7-0.3c0.2-0.3,0.5-0.4,0.9-0.5
		c0.4-0.1,0.7-0.3,0.9-0.7c0.2-0.3,0.8-0.4,1-0.6c0.2-0.3,0.7-0.3,1-0.6c0.3-0.3,0.5-0.6,0.9-0.7c0.4-0.1,0.7-0.6,0.8-0.8
		c0.1-0.2,0.5-0.1,0.7-0.2c0.2-0.1,0.3-0.4,0.4-0.7c0.1-0.3,1-0.5,1.2-0.6s1.2-0.4,1.7-0.6c0.5-0.2,1-0.7,1.4-0.8
		c0.4,0,0.8,0.1,1.6,0.1c0.7,0,1.9-0.2,2.5-0.4c0.5-0.2,1.7,0.6,2,0.7c0.3,0.1,0.8,0.4,1.1,0.3c0.3-0.1,0.2-0.3,0.3-0.6
		c0-0.3,0.2-0.2,0.5-0.4C187.2,28,187.1,27.7,187.2,27.4z"/>
	<path id="birdl11" d="M140.5,72c0.1-0.3,0.4-0.6,0.3-0.7c-0.1-0.1-0.8,0-1.6,0c-0.8,0-1.9-0.4-2.2-0.4c-0.3,0-0.6-0.7-0.7-0.8
		c0-0.1-0.1-0.6-0.2-0.9c-0.1-0.3,0.3-1.2,0.3-1.4c0-0.2,0.3-0.4,0.3-0.8c0-0.4,0.3-1.6,0.3-2.1c0-0.5,0.9-1.8,1.1-1.9
		c0.2-0.1,0.4-0.8,0.4-1.1c0-0.3,0.1-0.9,0.4-1.2c0.3-0.2,0-0.9,0.3-1.2c0.3-0.4,0.1-0.2,0.1-0.6c0-0.4,0.6-1.4,0.7-1.8
		c0.1-0.4,0.3-1.2,0.1-2.1c-0.1-1-0.2-1-0.6-0.3c-0.4,0.8-1.2,2.2-2.5,3.9c-1.3,1.6-4.1,3.8-4.5,4.2c-0.4,0.4-0.1,4.1-0.2,5
		c-0.1,0.9-0.5,1.4-0.6,1.5c-0.8,0.6-1.9-0.2-2.9,0.5c-0.2,0.1-0.4,0.3-0.4,0.4c-0.3,0.1-0.7,0.3-0.6,0.4c0,0.1,0.6,0.1,0.7,0.2
		c0.1,0.1,0.4,0.3,0.5,0.3c0.1,0.1,0.5,0.4,0.5,0.6c0,0.3-0.9,0.7-2,1.2c-1.1,0.5-3.2,1.4-3.6,1.6c-0.4,0.2-0.9,1.1-1.1,1.7
		c-0.3,0.6-1,2.7-2.1,3.4c-1.1,0.7-1,0.6-1,0.8c0,0.2,1-0.2,1.1-0.1c0.1,0.1,0.5,0,0.7-0.3c0.2-0.3,0.5-0.4,0.9-0.5
		c0.4-0.1,0.7-0.3,0.9-0.7c0.2-0.3,0.8-0.4,1-0.6c0.2-0.3,0.7-0.3,1-0.6c0.3-0.3,0.5-0.6,0.9-0.7c0.4-0.1,0.7-0.6,0.8-0.8
		c0.1-0.2,0.5-0.1,0.7-0.2c0.2-0.1,0.3-0.4,0.4-0.7c0.1-0.3,1-0.5,1.2-0.6s1.2-0.4,1.7-0.6c0.5-0.2,1-0.7,1.4-0.8
		c0.4,0,0.8,0.1,1.6,0.1c0.7,0,1.9-0.2,2.5-0.4c0.5-0.2,1.7,0.6,2,0.7c0.3,0.1,0.8,0.4,1.1,0.3c0.3-0.1,0.2-0.3,0.3-0.6
		c0-0.3,0.2-0.2,0.5-0.4C140.5,72.5,140.4,72.3,140.5,72z"/>
	<path id="birdl10" d="M164.4,92.3c0.1-0.3,0.4-0.6,0.3-0.7c-0.1-0.1-0.8,0-1.6,0c-0.8,0-1.9-0.4-2.2-0.4c-0.3,0-0.6-0.7-0.7-0.8
		c0-0.1-0.1-0.6-0.2-0.9c-0.1-0.3,0.3-1.2,0.3-1.4c0-0.2,0.3-0.4,0.3-0.8c0-0.4,0.3-1.6,0.3-2.1c0-0.5,0.9-1.8,1.1-1.9
		c0.2-0.1,0.4-0.8,0.4-1.1c0-0.3,0.1-0.9,0.4-1.2c0.3-0.2,0-0.9,0.3-1.2c0.3-0.4,0.1-0.2,0.1-0.6c0-0.4,0.6-1.4,0.7-1.8
		c0.1-0.4,0.3-1.2,0.1-2.1c-0.1-1-0.2-1-0.6-0.3c-0.4,0.8-1.2,2.2-2.5,3.9c-1.3,1.6-4.1,3.8-4.5,4.2c-0.4,0.4-0.1,4.1-0.2,5
		c-0.1,0.9-0.5,1.4-0.6,1.5c-0.8,0.6-1.9-0.2-2.9,0.5c-0.2,0.1-0.4,0.3-0.4,0.4c-0.3,0.1-0.7,0.3-0.6,0.4c0,0.1,0.6,0.1,0.7,0.2
		c0.1,0.1,0.4,0.3,0.5,0.3c0.1,0.1,0.5,0.4,0.5,0.6c0,0.3-0.9,0.7-2,1.2c-1.1,0.5-3.2,1.4-3.6,1.6c-0.4,0.2-0.9,1.1-1.1,1.7
		c-0.3,0.6-1,2.7-2.1,3.4c-1.1,0.7-1,0.6-1,0.8c0,0.2,1-0.2,1.1-0.1c0.1,0.1,0.5,0,0.7-0.3c0.2-0.3,0.5-0.4,0.9-0.5
		c0.4-0.1,0.7-0.3,0.9-0.7c0.2-0.3,0.8-0.4,1-0.6c0.2-0.3,0.7-0.3,1-0.6c0.3-0.3,0.5-0.6,0.9-0.7c0.4-0.1,0.7-0.6,0.8-0.8
		c0.1-0.2,0.5-0.1,0.7-0.2c0.2-0.1,0.3-0.4,0.4-0.7c0.1-0.3,1-0.5,1.2-0.6s1.2-0.4,1.7-0.6c0.5-0.2,1-0.7,1.4-0.8
		c0.4,0,0.8,0.1,1.6,0.1c0.7,0,1.9-0.2,2.5-0.4c0.5-0.2,1.7,0.6,2,0.7c0.3,0.1,0.8,0.4,1.1,0.3c0.3-0.1,0.2-0.3,0.3-0.6
		c0-0.3,0.2-0.2,0.5-0.4C164.4,92.8,164.3,92.6,164.4,92.3z"/>
	<path id="birdl9" d="M100.4,68c0.1-0.3,0.4-0.6,0.3-0.7c-0.1-0.1-0.8,0-1.6,0c-0.8,0-1.9-0.4-2.2-0.4c-0.3,0-0.6-0.7-0.7-0.8
		c0-0.1-0.1-0.6-0.2-0.9c-0.1-0.3,0.3-1.2,0.3-1.4c0-0.2,0.3-0.4,0.3-0.8c0-0.4,0.3-1.6,0.3-2.1c0-0.5,0.9-1.8,1.1-1.9
		c0.2-0.1,0.4-0.8,0.4-1.1c0-0.3,0.1-0.9,0.4-1.2c0.3-0.2,0-0.9,0.3-1.2c0.3-0.4,0.1-0.2,0.1-0.6c0-0.4,0.6-1.4,0.7-1.8
		c0.1-0.4,0.3-1.2,0.1-2.1c-0.1-1-0.2-1-0.6-0.3c-0.4,0.8-1.2,2.2-2.5,3.9c-1.3,1.6-4.1,3.8-4.5,4.2c-0.4,0.4-0.1,4.1-0.2,5
		c-0.1,0.9-0.5,1.4-0.6,1.5c-0.8,0.6-1.9-0.2-2.9,0.5c-0.2,0.1-0.4,0.3-0.4,0.4c-0.3,0.1-0.7,0.3-0.6,0.4c0,0.1,0.6,0.1,0.7,0.2
		c0.1,0.1,0.4,0.3,0.5,0.3c0.1,0.1,0.5,0.4,0.5,0.6c0,0.3-0.9,0.7-2,1.2c-1.1,0.5-3.2,1.4-3.6,1.6c-0.4,0.2-0.9,1.1-1.1,1.7
		c-0.3,0.6-1,2.7-2.1,3.4c-1.1,0.7-1,0.6-1,0.8c0,0.2,1-0.2,1.1-0.1c0.1,0.1,0.5,0,0.7-0.3c0.2-0.3,0.5-0.4,0.9-0.5
		c0.4-0.1,0.7-0.3,0.9-0.7c0.2-0.3,0.8-0.4,1-0.6c0.2-0.3,0.7-0.3,1-0.6c0.3-0.3,0.5-0.6,0.9-0.7c0.4-0.1,0.7-0.6,0.8-0.8
		c0.1-0.2,0.5-0.1,0.7-0.2c0.2-0.1,0.3-0.4,0.4-0.7c0.1-0.3,1-0.5,1.2-0.6s1.2-0.4,1.7-0.6c0.5-0.2,1-0.7,1.4-0.8
		c0.4,0,0.8,0.1,1.6,0.1c0.7,0,1.9-0.2,2.5-0.4c0.5-0.2,1.7,0.6,2,0.7c0.3,0.1,0.8,0.4,1.1,0.3c0.3-0.1,0.2-0.3,0.3-0.6
		c0-0.3,0.2-0.2,0.5-0.4C100.4,68.5,100.4,68.3,100.4,68z"/>
	<path id="birdl8" d="M190.7,34.4c1.3-1.2,1.7-2.6,0.5-2c-1.1,0.6-2.2,2.4-2.4,2.2c-0.3-0.2,1.8-3.4,0.7-3.1
		c-1.1,0.2-6.5,8.5-8.1,9.7c-1.6,1.2-6.2,4.2-7.7,5.5c-1.5,1.3-1.6,9.6-2.4,9.7c-0.8,0.2-2.7,0.8-3.4,1c-0.7,0.2-1.8-1.8-3.6-3
		c-1.8-1.2-3.4-3.2-6.6-2.7c-1.9,0.3-5-0.2-7.1-0.8c-3.3-1-6.1-2.3-6.9-2.3c-0.6,0,3.1,1.8,3.1,2c0,0.2-2.2-0.6-2.2-0.1
		c0,0.5,2.6,1.1,2.6,1.4c0,0.4-2.4-0.3-2.2,0.1c0.2,0.4,2.7,0.6,2.7,0.8c0,0.2-1.5,0.4-1.7,0.7c-0.2,0.3,1.5,0.2,1.8,0.2
		c0.4,0,1.7,0.6,2.4,0.6c0.5,0,1.1-0.4,1.3-0.3c0.3,0.1,0.6,0.5,1.1,0.4c0.3-0.1,0.5-0.1,0.8-0.1c0.2,0.1,0.6,0.3,0.8,0.3
		c0.2,0,0.9,0.3,1.2,0.1c0.4-0.2,1.6-0.1,2.6,0.2c1.5,0.7,3,1.7,3.8,2c1.2,0.4,3.6,1.8,4,2.3c0.4,0.4-0.4,1.5-0.2,2.2
		c-0.3,0.2-0.5,0.5-0.5,0.7c0,0,0.5-0.1,1-0.2c0.7,0.5,1.8,0.8,2.3,1c0.5,0.2,1.4,1.7,3,1.4c1.7-0.3,3-1.4,4.5-1.6
		c1.6-0.2,2.8,2.7,3.4,2.4c0.6-0.3,1,0,2-0.3c1.1-0.3,0.5-0.6,0.7-1c0.2-0.4,1.1,0.1,1.8-0.2c0.7-0.4,0.6-0.6,0.6-1
		c0-0.5,1.1-0.9,1.6-1.1c0.4-0.2-0.7-0.8-2.4-0.7c-1.6,0.2-4.6-1-5.2-1.7c-0.7-0.7-0.5-1.6-0.4-2.3c0.1-0.6,0.9-0.8,0.9-1.2
		c0-0.4,0.3-2,0.9-2.5c0.6-0.5,1-1.3,1.1-2.3c0.1-1,0.5-1.4,1.6-2.1c1.1-0.7,1.1-0.5,1.2-1.7c0.1-1.2,1.3-2,2.3-2.7
		c1-0.7,1.3-2.1,1.4-2.6c0.1-0.5,1.4-1.6,2.2-2.3c0.8-0.7,0.6-0.7,0.5-1.5c-0.1-0.8,2.3-2.1,2.9-2.9c0.7-0.8-1.9,0.2-2.6,0.5
		C189.7,35.7,189.4,35.5,190.7,34.4z"/>
	<path id="birdl7" d="M133.4,85.6c1.6-0.7,2.4-2,1.1-1.7c-1.3,0.2-2.8,1.6-3,1.3c-0.2-0.3,2.8-2.7,1.6-2.8c-1.1-0.1-8.8,6-10.7,6.7
		c-1.8,0.6-7.2,2.1-9.1,2.9c-1.9,0.8-4.5,8.6-5.3,8.5c-0.8-0.1-2.8-0.1-3.5-0.1c-0.7-0.1-1.2-2.3-2.5-4c-1.4-1.7-2.2-4.1-5.4-4.6
		c-1.9-0.3-4.7-1.7-6.5-3c-2.8-2-5-4.1-5.8-4.3c-0.5-0.2,2.4,2.7,2.3,2.9c-0.1,0.2-1.9-1.2-2.1-0.8c-0.2,0.5,2.2,1.8,2.1,2.2
		c-0.1,0.3-2.2-1-2.2-0.6c0,0.4,2.4,1.4,2.3,1.6c-0.1,0.2-1.6-0.1-1.8,0.1c-0.3,0.2,1.3,0.6,1.7,0.8c0.3,0.2,1.4,1.1,2.1,1.3
		c0.4,0.1,1.1,0,1.4,0.2c0.2,0.2,0.4,0.7,0.9,0.7c0.3,0,0.5,0,0.7,0.2c0.2,0.1,0.5,0.5,0.7,0.6c0.2,0.1,0.7,0.6,1.1,0.5
		c0.4-0.1,1.6,0.4,2.4,1c1.2,1.1,2.3,2.5,3,3c1,0.8,2.8,2.8,3.1,3.4c0.2,0.5-0.9,1.3-0.9,2.1c-0.3,0.1-0.6,0.3-0.7,0.6
		c0,0,0.5,0.1,1,0.1c0.5,0.7,1.5,1.3,1.8,1.6c0.4,0.4,0.8,2,2.5,2.3c1.7,0.3,3.3-0.4,4.8-0.1c1.6,0.3,1.8,3.4,2.5,3.3
		c0.7-0.1,0.9,0.3,2,0.3c1.1,0,0.6-0.4,1-0.7c0.3-0.3,1,0.4,1.8,0.3c0.8-0.1,0.7-0.4,0.9-0.8c0.2-0.4,1.4-0.5,1.8-0.6
		c0.5-0.1-0.5-1-2.1-1.4c-1.6-0.4-4-2.4-4.5-3.2c-0.4-0.8,0-1.7,0.3-2.3c0.3-0.6,1.1-0.5,1.2-0.9c0.1-0.3,0.9-1.9,1.6-2.1
		c0.7-0.3,1.4-0.9,1.8-1.8c0.4-1,0.9-1.2,2.1-1.5c1.2-0.3,1.2-0.2,1.7-1.2c0.5-1.1,1.8-1.5,3-1.8c1.2-0.3,1.9-1.6,2.1-2.1
		c0.2-0.5,1.8-1.1,2.8-1.5c1-0.4,0.8-0.5,0.9-1.3c0.1-0.8,2.8-1.3,3.7-1.9c0.9-0.5-1.9-0.4-2.6-0.4C132,86.6,131.8,86.3,133.4,85.6z
		"/>
	<path id="birdl6" d="M130.4,15.3c1.6-0.8,2.3-2.1,1-1.8c-1.3,0.3-2.7,1.7-2.9,1.4c-0.2-0.3,2.6-2.8,1.5-2.8
		c-1.1-0.1-8.5,6.4-10.4,7.1c-1.8,0.7-7.1,2.4-8.9,3.3c-1.8,0.9-4.1,8.8-4.9,8.7c-0.8-0.1-2.8,0.1-3.5,0c-0.7,0-1.3-2.2-2.7-3.8
		c-1.4-1.6-2.4-4-5.6-4.4c-1.9-0.2-4.8-1.5-6.7-2.7c-2.9-1.8-5.2-3.9-6-4.1c-0.5-0.1,2.5,2.6,2.4,2.8c-0.1,0.2-2-1.1-2.1-0.7
		c-0.1,0.5,2.3,1.7,2.1,2.1c-0.1,0.3-2.3-0.9-2.2-0.5c0.1,0.4,2.4,1.3,2.4,1.5c0,0.2-1.6-0.1-1.8,0.2c-0.3,0.2,1.4,0.6,1.7,0.7
		c0.3,0.1,1.4,1,2.2,1.2c0.4,0.1,1.1,0,1.4,0.1c0.2,0.2,0.4,0.7,0.9,0.7c0.3,0,0.5,0,0.7,0.1c0.2,0.1,0.5,0.5,0.7,0.5
		c0.2,0.1,0.7,0.5,1.1,0.5c0.4-0.1,1.6,0.3,2.4,0.8c1.2,1,2.5,2.4,3.1,2.9c1.1,0.8,3,2.7,3.2,3.3c0.2,0.5-0.8,1.3-0.8,2.1
		c-0.3,0.1-0.6,0.4-0.6,0.6c0,0,0.5,0.1,1,0.1c0.5,0.7,1.6,1.2,1.9,1.5c0.4,0.4,0.9,2,2.6,2.2c1.7,0.2,3.2-0.5,4.8-0.3
		c1.6,0.2,2,3.3,2.6,3.2c0.7-0.1,0.9,0.3,2.1,0.2c1.1,0,0.6-0.4,1-0.8c0.3-0.3,1,0.4,1.8,0.3c0.8-0.1,0.7-0.4,0.8-0.8
		c0.1-0.5,1.3-0.6,1.8-0.6c0.5-0.1-0.5-1-2.1-1.3c-1.6-0.3-4.1-2.2-4.6-3c-0.5-0.8-0.1-1.7,0.2-2.3c0.3-0.6,1.1-0.6,1.2-0.9
		c0.1-0.3,0.8-1.9,1.5-2.2c0.7-0.3,1.3-0.9,1.7-1.9c0.4-1,0.8-1.2,2.1-1.6c1.2-0.4,1.2-0.2,1.6-1.3c0.4-1.1,1.8-1.6,3-1.9
		c1.2-0.4,1.8-1.7,2-2.2c0.2-0.5,1.8-1.2,2.8-1.6c1-0.4,0.8-0.6,0.9-1.3c0.1-0.8,2.8-1.5,3.6-2c0.9-0.6-1.9-0.3-2.6-0.2
		C129,16.3,128.8,16,130.4,15.3z"/>
	<path id="birdl5" d="M143.6,133.6c0-0.4-0.2-0.2,1.9-1.6c2-1.3,3.7-5.1,4.3-6.1c0.6-1,1.5-2.7,2.3-3.1c0.8-0.4,4.4-2.2,6.4-3.2
		c1.9-1,3.5-1.8,3.5-2.3c0-0.4-0.5-0.9-0.7-1c-0.1-0.1-0.7-0.4-0.8-0.5c-0.1-0.1-1.1-0.1-1.1-0.2c-0.1-0.1,0.7-0.5,1.2-0.7
		c0.1-0.2,0.4-0.5,0.8-0.8c1.9-1.3,3.5-0.1,5-1.2c0.1-0.1,0.9-1.1,1.3-2.6c0.4-1.5,0.8-7.9,1.5-8.6c0.7-0.7,5.9-4.8,8.4-7.8
		c2.5-3,4.2-5.7,5.1-7c0.9-1.4,0.9-1.3,0.9,0.4c0,1.6-0.4,2.9-0.7,3.7c-0.3,0.8-1.5,2.5-1.6,3.3c-0.1,0.8,0.3,0.5-0.4,1.1
		c-0.6,0.7-0.2,1.7-0.8,2.2c-0.6,0.4-0.8,1.5-1,2c-0.2,0.6-0.7,1.8-1,2c-0.3,0.2-2,2.5-2.2,3.4c-0.2,0.9-1,3-1.1,3.7
		c0,0.7-0.6,1.1-0.7,1.5c-0.1,0.4-0.9,1.9-0.8,2.5c0.1,0.5,0.1,1.4,0.2,1.5c0.1,0.2,0.4,1.4,0.9,1.4c0.5-0.1,2.1,0.6,3.5,0.5
		c1.4-0.1,2.5-0.3,2.7-0.1c0.2,0.2-0.4,0.8-0.6,1.3c-0.2,0.5-0.1,0.9-0.6,1.3c-0.5,0.4-0.8,0.1-0.9,0.7c-0.2,0.6-0.1,0.8-0.6,1.1
		c-0.5,0.3-1.2-0.2-1.7-0.4c-0.5-0.1-2.3-1.5-3.2-1c-0.9,0.5-2.9,1-4.2,1.1c-1.2,0.1-1.9-0.1-2.6,0c-0.7,0.1-1.7,1.1-2.5,1.5
		c-0.8,0.4-2.5,1-2.9,1.3c-0.4,0.3-1.9,0.8-2.1,1.3c-0.3,0.5-0.4,1-0.8,1.2c-0.4,0.2-1,0.2-1.2,0.5c-0.2,0.3-0.9,1.3-1.5,1.4
		c-0.6,0.1-1,0.6-1.6,1.3c-0.6,0.6-1.4,0.7-1.8,1.2c-0.4,0.5-1.4,0.6-1.9,1.2c-0.4,0.6-1,1.1-1.7,1.3c-0.6,0.2-1.1,0.4-1.5,0.9
		c-0.4,0.5-1.1,0.7-1.3,0.6C145.2,133.1,143.6,134,143.6,133.6z"/>
	<path id="birdl4" d="M41.3,72.2c0-0.4-0.2-0.2,1.9-1.6c2-1.3,3.7-5.1,4.3-6.1c0.6-1,1.5-2.7,2.3-3.1c0.8-0.4,4.4-2.2,6.4-3.2
		c1.9-1,3.5-1.8,3.5-2.3c0-0.4-0.5-0.9-0.7-1c-0.1-0.1-0.7-0.4-0.8-0.5c-0.1-0.1-1.1-0.1-1.1-0.2c-0.1-0.1,0.7-0.5,1.2-0.7
		c0.1-0.2,0.4-0.5,0.8-0.8c1.9-1.3,3.5-0.1,5-1.2c0.1-0.1,0.9-1.1,1.3-2.6c0.4-1.5,0.8-7.9,1.5-8.6c0.7-0.7,5.9-4.8,8.4-7.8
		c2.5-3,4.2-5.7,5.1-7c0.9-1.4,0.9-1.3,0.9,0.4c0,1.6-0.4,2.9-0.7,3.7c-0.3,0.8-1.5,2.5-1.6,3.3c-0.1,0.8,0.3,0.5-0.4,1.1
		c-0.6,0.7-0.2,1.7-0.8,2.2c-0.6,0.4-0.8,1.5-1,2c-0.2,0.6-0.7,1.8-1,2c-0.3,0.2-2,2.5-2.2,3.4c-0.2,0.9-1,3-1.1,3.7
		c0,0.7-0.6,1.1-0.7,1.5c-0.1,0.4-0.9,1.9-0.8,2.5c0.1,0.5,0.1,1.4,0.2,1.5c0.1,0.2,0.4,1.4,0.9,1.4c0.5-0.1,2.1,0.6,3.5,0.5
		c1.4-0.1,2.5-0.3,2.7-0.1c0.2,0.2-0.4,0.8-0.6,1.3c-0.2,0.5-0.1,0.9-0.6,1.3c-0.5,0.4-0.8,0.1-0.9,0.7c-0.2,0.6-0.1,0.8-0.6,1.1
		c-0.5,0.3-1.2-0.2-1.7-0.4c-0.5-0.1-2.3-1.5-3.2-1c-0.9,0.5-2.9,1-4.2,1.1c-1.2,0.1-1.9-0.1-2.6,0c-0.7,0.1-1.7,1.1-2.5,1.5
		c-0.8,0.4-2.5,1-2.9,1.3c-0.4,0.3-1.9,0.8-2.1,1.3c-0.3,0.5-0.4,1-0.8,1.2c-0.4,0.2-1,0.2-1.2,0.5c-0.2,0.3-0.9,1.3-1.5,1.4
		c-0.6,0.1-1,0.6-1.6,1.3c-0.6,0.6-1.4,0.7-1.8,1.2c-0.4,0.5-1.4,0.6-1.9,1.2c-0.4,0.6-1,1.1-1.7,1.3c-0.6,0.2-1.1,0.4-1.5,0.9
		c-0.4,0.5-1.1,0.7-1.3,0.6C43,71.7,41.3,72.5,41.3,72.2z"/>
	<path id="birdl3" d="M41.3,128.2c0-0.4-0.2-0.2,1.9-1.6c2-1.3,3.7-5.1,4.3-6.1c0.6-1,1.5-2.7,2.3-3.1c0.8-0.4,4.4-2.2,6.4-3.2
		c1.9-1,3.5-1.8,3.5-2.3c0-0.4-0.5-0.9-0.7-1c-0.1-0.1-0.7-0.4-0.8-0.5c-0.1-0.1-1.1-0.1-1.1-0.2c-0.1-0.1,0.7-0.5,1.2-0.7
		c0.1-0.2,0.4-0.5,0.8-0.8c1.9-1.3,3.5-0.1,5-1.2c0.1-0.1,0.9-1.1,1.3-2.6c0.4-1.5,0.8-7.9,1.5-8.6c0.7-0.7,5.9-4.8,8.4-7.8
		c2.5-3,4.2-5.7,5.1-7c0.9-1.4,0.9-1.3,0.9,0.4c0,1.6-0.4,2.9-0.7,3.7c-0.3,0.8-1.5,2.5-1.6,3.3c-0.1,0.8,0.3,0.5-0.4,1.1
		c-0.6,0.7-0.2,1.7-0.8,2.2c-0.6,0.4-0.8,1.5-1,2c-0.2,0.6-0.7,1.8-1,2c-0.3,0.2-2,2.5-2.2,3.4c-0.2,0.9-1,3-1.1,3.7
		c0,0.7-0.6,1.1-0.7,1.5c-0.1,0.4-0.9,1.9-0.8,2.5c0.1,0.5,0.1,1.4,0.2,1.5c0.1,0.2,0.4,1.4,0.9,1.4c0.5-0.1,2.1,0.6,3.5,0.5
		c1.4-0.1,2.5-0.3,2.7-0.1c0.2,0.2-0.4,0.8-0.6,1.3c-0.2,0.5-0.1,0.9-0.6,1.3c-0.5,0.4-0.8,0.1-0.9,0.7c-0.2,0.6-0.1,0.8-0.6,1.1
		c-0.5,0.3-1.2-0.2-1.7-0.4c-0.5-0.1-2.3-1.5-3.2-1c-0.9,0.5-2.9,1-4.2,1.1c-1.2,0.1-1.9-0.1-2.6,0c-0.7,0.1-1.7,1.1-2.5,1.5
		c-0.8,0.4-2.5,1-2.9,1.3c-0.4,0.3-1.9,0.8-2.1,1.3c-0.3,0.5-0.4,1-0.8,1.2c-0.4,0.2-1,0.2-1.2,0.5c-0.2,0.3-0.9,1.3-1.5,1.4
		c-0.6,0.1-1,0.6-1.6,1.3c-0.6,0.6-1.4,0.7-1.8,1.2c-0.4,0.5-1.4,0.6-1.9,1.2c-0.4,0.6-1,1.1-1.7,1.3c-0.6,0.2-1.1,0.4-1.5,0.9
		c-0.4,0.5-1.1,0.7-1.3,0.6C43,127.7,41.3,128.6,41.3,128.2z"/>
	<path id="birdl2" d="M129.5,114.2c-0.2,0-2.8,0.2-3.7,1.2c0,0-1.1-0.1-1.4,0.3c-0.3,0.5,0.3,0.1,0.9,0.5c0.6,0.3,0.9,0.9,1.7,1.5
		c0.9,0.6,1.2,1.2,1.2,1.2s-1.7,2.7-3,3.8c-1.2,1.1-1.3,1-1.7,2.9c-0.5,1.8-1.5,6.4-1.9,7.5c-0.4,1.1-0.4,3.2,0.1,2.9
		c0.5-0.3,1.7-1.9,1.5-0.8c-0.2,1.1-0.4,2.2,0.2,2.4c0.6,0.2,1-2,1.3-1.3c0.3,0.7,0.1,1.8,0.8,1.9c0.8,0.2,0.2-2.6,0.8-2.5
		c0.6,0.1,0.2,0.5,0.7,0.5c0.5,0,0.6-2.3,1.3-2.5c0.6-0.1,0.4,0.6,1,0c0.6-0.6,0.9-2.2,1.3-2.3c0.4-0.1,0.7,0.2,1.3,0.1
		c0.5-0.1,0.6-1.3,1.3-1.7c0.7-0.4,2.2-3.9,3.2-4c1-0.1,1.7-1,1.8-1.8c0.2-0.8,0.4-1.6,0.9-1.5c0.5,0.1,6.1,5.7,7,7
		c0.9,1.3,1,1.9,1.6,1.5c0.6-0.4,0.4-1.1,0.4-1.5c0-0.4,0.1-1,0.3-1.3c0.2-0.4-0.1-0.7,0-1.3c0.1-0.6,0.1-2.5,0.4-2.4
		c0.3,0.1,0-0.3,0.4-0.9c0.4-0.6,0.5-0.7,1-1.1c0.5-0.4,0.1-0.7,1.1-1.2c0.9-0.6,0.8-0.3,1.3-1.1c0.5-0.8-0.1-0.6,0.8-1.2
		c0.8-0.6,1.9-1.3,1.2-1.6c-0.7-0.3-1.5-0.1-2.7,0.2c-1.2,0.3-7.8,0.5-9.6,0.2c-1.8-0.4-1.5-0.6-1.2-1.1c0.3-0.4,1.5-1.3,1.1-2
		c-0.4-0.7-0.5-0.7,0.1-1.5c0.6-0.8,0.8-4,0.5-4.6c-0.3-0.6-0.5-1.4-0.4-2c0.2-0.6,0.8-2.5,0-3.4c-0.8-1-0.6-1.3-0.4-1.8
		c0.2-0.5-0.5-0.9-0.5-2.5c0-1.6,0-1.2,0.5-2.1c0.5-0.9,1.5-2.9,0.9-3.2c-0.6-0.3-1.8,1.7-2.2,1.8c-0.8,0.2,1.8-4,1.2-4.3
		c-0.7-0.3-2.6,2.5-2.9,2.3c-0.3-0.2,1.2-3,0.4-3.4c-0.8-0.4-2.3,2.9-2.7,2.8c-0.4-0.1,0.3-1.3-0.3-1.4c-0.6-0.1-2.3,2.3-2.9,4
		c-0.6,1.7-1.7,6.1-2.3,7c-0.5,0.9-1.2,1.5-0.6,3.5C131.2,107.8,130.8,114.1,129.5,114.2z"/>
	<path id="birdl1" d="M121.9,46.1c-0.2,0-1.7,0.1-2.3,0.7c0,0-0.7-0.1-0.9,0.2c-0.2,0.3,0.2,0.1,0.6,0.3c0.4,0.2,0.5,0.6,1.1,0.9
		c0.5,0.4,0.7,0.7,0.7,0.7s-1.1,1.7-1.9,2.3c-0.8,0.7-0.8,0.6-1.1,1.8c-0.3,1.1-0.9,4-1.2,4.7c-0.3,0.7-0.3,2,0.1,1.8
		c0.3-0.2,1-1.2,0.9-0.5c-0.1,0.7-0.2,1.3,0.1,1.5c0.4,0.1,0.6-1.2,0.8-0.8c0.2,0.4,0,1.1,0.5,1.2c0.5,0.1,0.1-1.6,0.5-1.6
		c0.3,0.1,0.1,0.3,0.4,0.3c0.3,0,0.4-1.4,0.8-1.5c0.4-0.1,0.2,0.4,0.6,0c0.4-0.4,0.6-1.4,0.8-1.4c0.2-0.1,0.5,0.1,0.8,0
		c0.3-0.1,0.4-0.8,0.8-1c0.4-0.2,1.3-2.4,2-2.5c0.7-0.1,1-0.6,1.1-1.1c0.1-0.5,0.3-1,0.6-0.9c0.3,0.1,3.8,3.5,4.4,4.3
		c0.6,0.8,0.6,1.2,1,1c0.4-0.3,0.3-0.7,0.3-0.9c0-0.3,0-0.6,0.2-0.8c0.1-0.2-0.1-0.5,0-0.8c0.1-0.3,0-1.6,0.2-1.5
		c0.2,0.1,0-0.2,0.2-0.5c0.2-0.4,0.3-0.4,0.6-0.7c0.3-0.2,0.1-0.4,0.7-0.8c0.6-0.4,0.5-0.2,0.8-0.7c0.3-0.5,0-0.4,0.5-0.7
		c0.5-0.4,1.2-0.8,0.7-1c-0.5-0.2-0.9-0.1-1.7,0.1c-0.8,0.2-4.9,0.3-6,0.1c-1.1-0.2-1-0.4-0.8-0.7c0.2-0.3,0.9-0.8,0.7-1.2
		c-0.2-0.4-0.3-0.5,0.1-0.9c0.4-0.5,0.5-2.5,0.3-2.9c-0.2-0.4-0.3-0.9-0.2-1.3c0.1-0.4,0.5-1.5,0-2.1c-0.5-0.6-0.4-0.8-0.2-1.1
		c0.1-0.3-0.3-0.5-0.3-1.5c0-1,0-0.7,0.3-1.3c0.3-0.6,0.9-1.8,0.6-2c-0.4-0.2-1.1,1.1-1.4,1.1c-0.5,0.1,1.1-2.5,0.7-2.7
		c-0.4-0.2-1.6,1.6-1.8,1.4c-0.2-0.1,0.8-1.9,0.3-2.1c-0.5-0.2-1.4,1.8-1.7,1.7c-0.2-0.1,0.2-0.8-0.2-0.9c-0.4-0.1-1.4,1.4-1.8,2.5
		c-0.4,1.1-1.1,3.8-1.4,4.3c-0.3,0.6-0.7,1-0.4,2.2C123,42.1,122.7,46,121.9,46.1z"/>
	<path id="birdr12" d="M257.6,100.1c-0.1-0.3-0.4-0.6-0.3-0.7c0.1-0.1,0.8,0,1.6,0c0.8,0,1.9-0.4,2.2-0.4c0.3,0,0.6-0.7,0.7-0.8
		c0-0.1,0.1-0.6,0.2-0.9c0.1-0.3-0.3-1.2-0.3-1.4c0-0.2-0.3-0.4-0.3-0.8c0-0.4-0.3-1.6-0.3-2.1c0-0.5-0.9-1.8-1.1-1.9
		c-0.2-0.1-0.4-0.8-0.4-1.1c0-0.3-0.1-0.9-0.4-1.2c-0.3-0.2,0-0.9-0.3-1.2c-0.3-0.4-0.1-0.2-0.1-0.6c0-0.4-0.6-1.4-0.7-1.8
		c-0.1-0.4-0.3-1.2-0.1-2.1c0.1-1,0.2-1,0.6-0.3c0.4,0.8,1.2,2.2,2.5,3.9c1.3,1.6,4.1,3.8,4.5,4.2c0.4,0.4,0.1,4.1,0.2,5
		c0.1,0.9,0.5,1.4,0.6,1.5c0.8,0.6,1.9-0.2,2.9,0.5c0.2,0.1,0.4,0.3,0.4,0.4c0.3,0.1,0.7,0.3,0.6,0.4c0,0.1-0.6,0.1-0.7,0.2
		c-0.1,0.1-0.4,0.3-0.5,0.3c-0.1,0.1-0.5,0.4-0.5,0.6c0,0.3,0.9,0.7,2,1.2c1.1,0.5,3.2,1.4,3.6,1.6c0.4,0.2,0.9,1.1,1.1,1.7
		c0.3,0.6,1,2.7,2.1,3.4c1.1,0.7,1,0.6,1,0.8c0,0.2-1-0.2-1.1-0.1c-0.1,0.1-0.5,0-0.7-0.3c-0.2-0.3-0.5-0.4-0.9-0.5
		c-0.4-0.1-0.7-0.3-0.9-0.7c-0.2-0.3-0.8-0.4-1-0.6c-0.2-0.3-0.7-0.3-1-0.6c-0.3-0.3-0.5-0.6-0.9-0.7c-0.4-0.1-0.7-0.6-0.8-0.8
		c-0.1-0.2-0.5-0.1-0.7-0.2c-0.2-0.1-0.3-0.4-0.4-0.7c-0.1-0.3-1-0.5-1.2-0.6s-1.2-0.4-1.7-0.6c-0.5-0.2-1-0.7-1.4-0.8
		c-0.4,0-0.8,0.1-1.6,0.1c-0.7,0-1.9-0.2-2.5-0.4c-0.5-0.2-1.7,0.6-2,0.7c-0.3,0.1-0.8,0.4-1.1,0.3c-0.3-0.1-0.2-0.3-0.3-0.6
		c0-0.3-0.2-0.2-0.5-0.4C257.6,100.6,257.7,100.4,257.6,100.1z"/>
	<path id="birdr11" d="M214.8,45c-0.1-0.3-0.4-0.6-0.3-0.7c0.1-0.1,0.8,0,1.6,0c0.8,0,1.9-0.4,2.2-0.4c0.3,0,0.6-0.7,0.7-0.8
		c0-0.1,0.1-0.6,0.2-0.9c0.1-0.3-0.3-1.2-0.3-1.4c0-0.2-0.3-0.4-0.3-0.8c0-0.4-0.3-1.6-0.3-2.1c0-0.5-0.9-1.8-1.1-1.9
		c-0.2-0.1-0.4-0.8-0.4-1.1c0-0.3-0.1-0.9-0.4-1.2c-0.3-0.2,0-0.9-0.3-1.2c-0.3-0.4-0.1-0.2-0.1-0.6c0-0.4-0.6-1.4-0.7-1.8
		c-0.1-0.4-0.3-1.2-0.1-2.1c0.1-1,0.2-1,0.6-0.3c0.4,0.8,1.2,2.2,2.5,3.9c1.3,1.6,4.1,3.8,4.5,4.2c0.4,0.4,0.1,4.1,0.2,5
		c0.1,0.9,0.5,1.4,0.6,1.5c0.8,0.6,1.9-0.2,2.9,0.5c0.2,0.1,0.4,0.3,0.4,0.4c0.3,0.1,0.7,0.3,0.6,0.4c0,0.1-0.6,0.1-0.7,0.2
		c-0.1,0.1-0.4,0.3-0.5,0.3c-0.1,0.1-0.5,0.4-0.5,0.6c0,0.3,0.9,0.7,2,1.2c1.1,0.5,3.2,1.4,3.6,1.6c0.4,0.2,0.9,1.1,1.1,1.7
		c0.3,0.6,1,2.7,2.1,3.4c1.1,0.7,1,0.6,1,0.8c0,0.2-1-0.2-1.1-0.1c-0.1,0.1-0.5,0-0.7-0.3c-0.2-0.3-0.5-0.4-0.9-0.5
		c-0.4-0.1-0.7-0.3-0.9-0.7c-0.2-0.3-0.8-0.4-1-0.6c-0.2-0.3-0.7-0.3-1-0.6c-0.3-0.3-0.5-0.6-0.9-0.7c-0.4-0.1-0.7-0.6-0.8-0.8
		c-0.1-0.2-0.5-0.1-0.7-0.2c-0.2-0.1-0.3-0.4-0.4-0.7c-0.1-0.3-1-0.5-1.2-0.6s-1.2-0.4-1.7-0.6c-0.5-0.2-1-0.7-1.4-0.8
		c-0.4,0-0.8,0.1-1.6,0.1c-0.7,0-1.9-0.2-2.5-0.4c-0.5-0.2-1.7,0.6-2,0.7c-0.3,0.1-0.8,0.4-1.1,0.3c-0.3-0.1-0.2-0.3-0.3-0.6
		c0-0.3-0.2-0.2-0.5-0.4C214.7,45.5,214.8,45.3,214.8,45z"/>
	<path id="birdr10" d="M331.4,42.2c-0.1-0.3-0.4-0.6-0.3-0.7c0.1-0.1,0.8,0,1.6,0c0.8,0,1.9-0.4,2.2-0.4c0.3,0,0.6-0.7,0.7-0.8
		c0-0.1,0.1-0.6,0.2-0.9c0.1-0.3-0.3-1.2-0.3-1.4c0-0.2-0.3-0.4-0.3-0.8c0-0.4-0.3-1.6-0.3-2.1c0-0.5-0.9-1.8-1.1-1.9
		c-0.2-0.1-0.4-0.8-0.4-1.1c0-0.3-0.1-0.9-0.4-1.2c-0.3-0.2,0-0.9-0.3-1.2c-0.3-0.4-0.1-0.2-0.1-0.6c0-0.4-0.6-1.4-0.7-1.8
		c-0.1-0.4-0.3-1.2-0.1-2.1c0.1-1,0.2-1,0.6-0.3c0.4,0.8,1.2,2.2,2.5,3.9c1.3,1.6,4.1,3.8,4.5,4.2c0.4,0.4,0.1,4.1,0.2,5
		c0.1,0.9,0.5,1.4,0.6,1.5c0.8,0.6,1.9-0.2,2.9,0.5c0.2,0.1,0.4,0.3,0.4,0.4c0.3,0.1,0.7,0.3,0.6,0.4c0,0.1-0.6,0.1-0.7,0.2
		c-0.1,0.1-0.4,0.3-0.5,0.3c-0.1,0.1-0.5,0.4-0.5,0.6c0,0.3,0.9,0.7,2,1.2c1.1,0.5,3.2,1.4,3.6,1.6c0.4,0.2,0.9,1.1,1.1,1.7
		c0.3,0.6,1,2.7,2.1,3.4c1.1,0.7,1,0.6,1,0.8c0,0.2-1-0.2-1.1-0.1c-0.1,0.1-0.5,0-0.7-0.3c-0.2-0.3-0.5-0.4-0.9-0.5
		c-0.4-0.1-0.7-0.3-0.9-0.7c-0.2-0.3-0.8-0.4-1-0.6c-0.2-0.3-0.7-0.3-1-0.6c-0.3-0.3-0.5-0.6-0.9-0.7c-0.4-0.1-0.7-0.6-0.8-0.8
		c-0.1-0.2-0.5-0.1-0.7-0.2c-0.2-0.1-0.3-0.4-0.4-0.7c-0.1-0.3-1-0.5-1.2-0.6s-1.2-0.4-1.7-0.6c-0.5-0.2-1-0.7-1.4-0.8
		c-0.4,0-0.8,0.1-1.6,0.1c-0.7,0-1.9-0.2-2.5-0.4c-0.5-0.2-1.7,0.6-2,0.7c-0.3,0.1-0.8,0.4-1.1,0.3c-0.3-0.1-0.2-0.3-0.3-0.6
		c0-0.3-0.2-0.2-0.5-0.4C331.4,42.7,331.5,42.5,331.4,42.2z"/>
	<path id="birdr8" d="M210.1,22.9c-0.2-0.2-0.6-0.3-0.6-0.5c0.1-0.2,0.7-0.5,1.4-0.9c0.7-0.4,1.4-1.4,1.6-1.5
		c0.2-0.1,0.1-0.9,0.1-1.1c0-0.1-0.2-0.6-0.3-0.9c-0.1-0.3-0.8-0.9-1-1c-0.1-0.2-0.5-0.2-0.7-0.6c-0.2-0.4-1.1-1.2-1.4-1.6
		c-0.3-0.4-1.7-1-1.9-1c-0.2,0-0.8-0.5-1-0.7c-0.2-0.3-0.6-0.7-1-0.8c-0.4,0-0.4-0.8-0.9-0.9c-0.5-0.1-0.2-0.1-0.5-0.5
		c-0.2-0.4-1.2-0.9-1.5-1.2c-0.3-0.3-0.8-0.9-1.2-1.7c-0.4-0.9-0.4-1,0.4-0.5c0.8,0.4,2.2,1.3,4.2,2c2,0.7,5.5,1.1,6,1.3
		c0.5,0.1,2.2,3.5,2.7,4.1c0.6,0.7,1.2,1,1.2,1c1,0.1,1.5-1.1,2.8-1.1c0.3,0,0.4,0.1,0.6,0.1c0.3-0.1,0.8-0.1,0.7,0
		c0,0.1-0.5,0.4-0.5,0.5c0,0.1-0.2,0.5-0.3,0.6c-0.1,0.1-0.2,0.6-0.1,0.8c0.1,0.2,1.1,0.1,2.3,0c1.2-0.2,3.5-0.5,3.9-0.5
		c0.5-0.1,1.3,0.5,1.9,0.9c0.5,0.4,2.2,1.8,3.6,1.8c1.3,0,1.2,0,1.3,0.2c0.1,0.2-0.9,0.3-1,0.4c-0.1,0.1-0.4,0.2-0.8,0.1
		c-0.3-0.1-0.6-0.1-1,0c-0.4,0.1-0.8,0.1-1.1-0.1c-0.4-0.2-0.9,0.1-1.2,0c-0.3-0.1-0.7,0.1-1.2,0c-0.5-0.1-0.8-0.3-1.1-0.1
		c-0.3,0.1-0.9-0.1-1.1-0.2c-0.2-0.1-0.4,0.1-0.7,0.1c-0.2,0-0.4-0.2-0.7-0.4c-0.2-0.2-1.1,0.1-1.3,0.1c-0.3,0-1.3,0.3-1.8,0.3
		c-0.5,0.1-1.2-0.1-1.6,0.1c-0.4,0.2-0.7,0.5-1.3,0.9c-0.6,0.4-1.8,0.8-2.3,0.9c-0.6,0.1-1.1,1.4-1.4,1.6c-0.2,0.3-0.5,0.8-0.8,0.8
		c-0.3,0-0.3-0.1-0.5-0.4c-0.2-0.3-0.3,0-0.6,0C210.3,23.4,210.3,23.1,210.1,22.9z"/>
	<path id="birdr7" d="M309.1,64c-1.6-0.8-2.3-2.1-1-1.8c1.3,0.3,2.7,1.7,2.9,1.4c0.2-0.3-2.6-2.8-1.5-2.8c1.1-0.1,8.5,6.4,10.4,7.1
		c1.8,0.7,7.1,2.4,8.9,3.3c1.8,0.9,4.1,8.8,4.9,8.7c0.8-0.1,2.8,0.1,3.5,0c0.7,0,1.3-2.2,2.7-3.8c1.4-1.6,2.4-4,5.6-4.4
		c1.9-0.2,4.8-1.5,6.7-2.7c2.9-1.8,5.2-3.9,6-4.1c0.5-0.1-2.5,2.6-2.4,2.8c0.1,0.2,2-1.1,2.1-0.7c0.1,0.5-2.3,1.7-2.1,2.1
		c0.1,0.3,2.3-0.9,2.2-0.5c-0.1,0.4-2.4,1.3-2.4,1.5c0,0.2,1.6-0.1,1.8,0.2c0.3,0.2-1.4,0.6-1.7,0.7c-0.3,0.1-1.4,1-2.2,1.2
		c-0.4,0.1-1.1,0-1.4,0.1c-0.2,0.2-0.4,0.7-0.9,0.7c-0.3,0-0.5,0-0.7,0.1c-0.2,0.1-0.5,0.5-0.7,0.5c-0.2,0.1-0.7,0.5-1.1,0.5
		c-0.4-0.1-1.6,0.3-2.4,0.8c-1.2,1-2.5,2.4-3.1,2.9c-1.1,0.8-3,2.7-3.2,3.3c-0.2,0.5,0.8,1.3,0.8,2.1c0.3,0.1,0.6,0.4,0.6,0.6
		c0,0-0.5,0.1-1,0.1c-0.5,0.7-1.6,1.2-1.9,1.5c-0.4,0.4-0.9,2-2.6,2.2c-1.7,0.2-3.2-0.5-4.8-0.3c-1.6,0.2-2,3.3-2.6,3.2
		c-0.7-0.1-0.9,0.3-2.1,0.2c-1.1,0-0.6-0.4-1-0.8c-0.3-0.3-1,0.4-1.8,0.3c-0.8-0.1-0.7-0.4-0.8-0.8c-0.1-0.5-1.3-0.6-1.8-0.6
		c-0.5-0.1,0.5-1,2.1-1.3c1.6-0.3,4.1-2.2,4.6-3c0.5-0.8,0.1-1.7-0.2-2.3c-0.3-0.6-1.1-0.6-1.2-0.9c-0.1-0.3-0.8-1.9-1.5-2.2
		c-0.7-0.3-1.3-0.9-1.7-1.9c-0.4-1-0.8-1.2-2.1-1.6c-1.2-0.4-1.2-0.2-1.6-1.3c-0.4-1.1-1.8-1.6-3-1.9c-1.2-0.4-1.8-1.7-2-2.2
		c-0.2-0.5-1.8-1.2-2.8-1.6c-1-0.4-0.8-0.6-0.9-1.3c-0.1-0.8-2.8-1.5-3.6-2c-0.9-0.6,1.9-0.3,2.6-0.2C310.5,65,310.7,64.7,309.1,64z
		"/>
	<path id="birdr6" d="M247.7,47.6c-1.6-0.8-2.3-2.1-1-1.8c1.3,0.3,2.7,1.7,2.9,1.4c0.2-0.3-2.6-2.8-1.5-2.8
		c1.1-0.1,8.5,6.4,10.4,7.1c1.8,0.7,7.1,2.4,8.9,3.3c1.8,0.9,4.1,8.8,4.9,8.7c0.8-0.1,2.8,0.1,3.5,0c0.7,0,1.3-2.2,2.7-3.8
		c1.4-1.6,2.4-4,5.6-4.4c1.9-0.2,4.8-1.5,6.7-2.7c2.9-1.8,5.2-3.9,6-4.1c0.5-0.1-2.5,2.6-2.4,2.8c0.1,0.2,2-1.1,2.1-0.7
		c0.1,0.5-2.3,1.7-2.1,2.1c0.1,0.3,2.3-0.9,2.2-0.5c-0.1,0.4-2.4,1.3-2.4,1.5c0,0.2,1.6-0.1,1.8,0.2c0.3,0.2-1.4,0.6-1.7,0.7
		c-0.3,0.1-1.4,1-2.2,1.2c-0.4,0.1-1.1,0-1.4,0.1c-0.2,0.2-0.4,0.7-0.9,0.7c-0.3,0-0.5,0-0.7,0.1c-0.2,0.1-0.5,0.5-0.7,0.5
		c-0.2,0.1-0.7,0.5-1.1,0.5c-0.4-0.1-1.6,0.3-2.4,0.8c-1.2,1-2.5,2.4-3.1,2.9c-1.1,0.8-3,2.7-3.2,3.3c-0.2,0.5,0.8,1.3,0.8,2.1
		c0.3,0.1,0.6,0.4,0.6,0.6c0,0-0.5,0.1-1,0.1c-0.5,0.7-1.6,1.2-1.9,1.5c-0.4,0.4-0.9,2-2.6,2.2c-1.7,0.2-3.2-0.5-4.8-0.3
		c-1.6,0.2-2,3.3-2.6,3.2c-0.7-0.1-0.9,0.3-2.1,0.2c-1.1,0-0.6-0.4-1-0.8c-0.3-0.3-1,0.4-1.8,0.3c-0.8-0.1-0.7-0.4-0.8-0.8
		c-0.1-0.5-1.3-0.6-1.8-0.6c-0.5-0.1,0.5-1,2.1-1.3c1.6-0.3,4.1-2.2,4.6-3c0.5-0.8,0.1-1.7-0.2-2.3c-0.3-0.6-1.1-0.6-1.2-0.9
		c-0.1-0.3-0.8-1.9-1.5-2.2c-0.7-0.3-1.3-0.9-1.7-1.9c-0.4-1-0.8-1.2-2.1-1.6c-1.2-0.4-1.2-0.2-1.6-1.3c-0.4-1.1-1.8-1.6-3-1.9
		c-1.2-0.4-1.8-1.7-2-2.2c-0.2-0.5-1.8-1.2-2.8-1.6c-1-0.4-0.8-0.6-0.9-1.3c-0.1-0.8-2.8-1.5-3.6-2c-0.9-0.6,1.9-0.3,2.6-0.2
		C249.1,48.6,249.3,48.3,247.7,47.6z"/>
	<path id="birdr5" d="M283.6,53.2c0-0.4,0.2-0.2-1.9-1.6c-2-1.3-3.7-5.1-4.3-6.1c-0.6-1-1.5-2.7-2.3-3.1c-0.8-0.4-4.4-2.2-6.4-3.2
		c-1.9-1-3.5-1.8-3.5-2.3c0-0.4,0.5-0.9,0.7-1c0.1-0.1,0.7-0.4,0.8-0.5c0.1-0.1,1.1-0.1,1.1-0.2c0.1-0.1-0.7-0.5-1.2-0.7
		c-0.1-0.2-0.4-0.5-0.8-0.8c-1.9-1.3-3.5-0.1-5-1.2c-0.1-0.1-0.9-1.1-1.3-2.6c-0.4-1.5-0.8-7.9-1.5-8.6c-0.7-0.7-5.9-4.8-8.4-7.8
		c-2.5-3-4.2-5.7-5.1-7c-0.9-1.4-0.9-1.3-0.9,0.4c0,1.6,0.4,2.9,0.7,3.7c0.3,0.8,1.5,2.5,1.6,3.3c0.1,0.8-0.3,0.5,0.4,1.1
		c0.6,0.7,0.2,1.7,0.8,2.2c0.6,0.4,0.8,1.5,1,2c0.2,0.6,0.7,1.8,1,2c0.3,0.2,2,2.5,2.2,3.4c0.2,0.9,1,3,1.1,3.7
		c0,0.7,0.6,1.1,0.7,1.5c0.1,0.4,0.9,1.9,0.8,2.5c-0.1,0.5-0.1,1.4-0.2,1.5c-0.1,0.2-0.4,1.4-0.9,1.4c-0.5-0.1-2.1,0.6-3.5,0.5
		c-1.4-0.1-2.5-0.3-2.7-0.1c-0.2,0.2,0.4,0.8,0.6,1.3c0.2,0.5,0.1,0.9,0.6,1.3s0.8,0.1,0.9,0.7c0.2,0.6,0.1,0.8,0.6,1.1
		c0.5,0.3,1.2-0.2,1.7-0.4c0.5-0.1,2.3-1.5,3.2-1c0.9,0.5,2.9,1,4.2,1.1c1.2,0.1,1.9-0.1,2.6,0c0.7,0.1,1.7,1.1,2.5,1.5
		c0.8,0.4,2.5,1,2.9,1.3c0.4,0.3,1.9,0.8,2.1,1.3c0.3,0.5,0.4,1,0.8,1.2c0.4,0.2,1,0.2,1.2,0.5c0.2,0.3,0.9,1.3,1.5,1.4
		c0.6,0.1,1,0.6,1.6,1.3c0.6,0.6,1.4,0.7,1.8,1.2c0.4,0.5,1.4,0.6,1.9,1.2c0.4,0.6,1,1.1,1.7,1.3c0.6,0.2,1.1,0.4,1.5,0.9
		c0.4,0.5,1.1,0.7,1.3,0.6C282,52.7,283.7,53.6,283.6,53.2z"/>
	<path id="birdr4" d="M323.5,109.6c0-0.4,0.2-0.2-1.9-1.6c-2-1.3-3.7-5.1-4.3-6.1c-0.6-1-1.5-2.7-2.3-3.1c-0.8-0.4-4.4-2.2-6.4-3.2
		c-1.9-1-3.5-1.8-3.5-2.3c0-0.4,0.5-0.9,0.7-1c0.1-0.1,0.7-0.4,0.8-0.5c0.1-0.1,1.1-0.1,1.1-0.2c0.1-0.1-0.7-0.5-1.2-0.7
		c-0.1-0.2-0.4-0.5-0.8-0.8c-1.9-1.3-3.5-0.1-5-1.2c-0.1-0.1-0.9-1.1-1.3-2.6c-0.4-1.5-0.8-7.9-1.5-8.6c-0.7-0.7-5.9-4.8-8.4-7.8
		c-2.5-3-4.2-5.7-5.1-7c-0.9-1.4-0.9-1.3-0.9,0.4c0,1.6,0.4,2.9,0.7,3.7c0.3,0.8,1.5,2.5,1.6,3.3c0.1,0.8-0.3,0.5,0.4,1.1
		c0.6,0.7,0.2,1.7,0.8,2.2c0.6,0.4,0.8,1.5,1,2c0.2,0.6,0.7,1.8,1,2c0.3,0.2,2,2.5,2.2,3.4c0.2,0.9,1,3,1.1,3.7
		c0,0.7,0.6,1.1,0.7,1.5c0.1,0.4,0.9,1.9,0.8,2.5c-0.1,0.5-0.1,1.4-0.2,1.5c-0.1,0.2-0.4,1.4-0.9,1.4c-0.5-0.1-2.1,0.6-3.5,0.5
		c-1.4-0.1-2.5-0.3-2.7-0.1c-0.2,0.2,0.4,0.8,0.6,1.3c0.2,0.5,0.1,0.9,0.6,1.3c0.5,0.4,0.8,0.1,0.9,0.7c0.2,0.6,0.1,0.8,0.6,1.1
		c0.5,0.3,1.2-0.2,1.7-0.4c0.5-0.1,2.3-1.5,3.2-1c0.9,0.5,2.9,1,4.2,1.1c1.2,0.1,1.9-0.1,2.6,0c0.7,0.1,1.7,1.1,2.5,1.5
		c0.8,0.4,2.5,1,2.9,1.3c0.4,0.3,1.9,0.8,2.1,1.3c0.3,0.5,0.4,1,0.8,1.2c0.4,0.2,1,0.2,1.2,0.5c0.2,0.3,0.9,1.3,1.5,1.4
		c0.6,0.1,1,0.6,1.6,1.3c0.6,0.6,1.4,0.7,1.8,1.2c0.4,0.5,1.4,0.6,1.9,1.2c0.4,0.6,1,1.1,1.7,1.3c0.6,0.2,1.1,0.4,1.5,0.9
		c0.4,0.5,1.1,0.7,1.3,0.6C321.8,109.1,323.5,109.9,323.5,109.6z"/>
	<path id="birdr3" d="M328.6,51c0-0.4,0.2-0.2-1.9-1.6c-2-1.3-3.7-5.1-4.3-6.1c-0.6-1-1.5-2.7-2.3-3.1c-0.8-0.4-4.4-2.2-6.4-3.2
		c-1.9-1-3.5-1.8-3.5-2.3c0-0.4,0.5-0.9,0.7-1c0.1-0.1,0.7-0.4,0.8-0.5c0.1-0.1,1.1-0.1,1.1-0.2c0.1-0.1-0.7-0.5-1.2-0.7
		c-0.1-0.2-0.4-0.5-0.8-0.8c-1.9-1.3-3.5-0.1-5-1.2c-0.1-0.1-0.9-1.1-1.3-2.6c-0.4-1.5-0.8-7.9-1.5-8.6c-0.7-0.7-5.9-4.8-8.4-7.8
		c-2.5-3-4.2-5.7-5.1-7c-0.9-1.4-0.9-1.3-0.9,0.4c0,1.6,0.4,2.9,0.7,3.7c0.3,0.8,1.5,2.5,1.6,3.3c0.1,0.8-0.3,0.5,0.4,1.1
		c0.6,0.7,0.2,1.7,0.8,2.2c0.6,0.4,0.8,1.5,1,2c0.2,0.6,0.7,1.8,1,2c0.3,0.2,2,2.5,2.2,3.4c0.2,0.9,1,3,1.1,3.7
		c0,0.7,0.6,1.1,0.7,1.5c0.1,0.4,0.9,1.9,0.8,2.5c-0.1,0.5-0.1,1.4-0.2,1.5c-0.1,0.2-0.4,1.4-0.9,1.4c-0.5-0.1-2.1,0.6-3.5,0.5
		c-1.4-0.1-2.5-0.3-2.7-0.1c-0.2,0.2,0.4,0.8,0.6,1.3c0.2,0.5,0.1,0.9,0.6,1.3c0.5,0.4,0.8,0.1,0.9,0.7c0.2,0.6,0.1,0.8,0.6,1.1
		c0.5,0.3,1.2-0.2,1.7-0.4c0.5-0.1,2.3-1.5,3.2-1c0.9,0.5,2.9,1,4.2,1.1c1.2,0.1,1.9-0.1,2.6,0c0.7,0.1,1.7,1.1,2.5,1.5
		c0.8,0.4,2.5,1,2.9,1.3c0.4,0.3,1.9,0.8,2.1,1.3c0.3,0.5,0.4,1,0.8,1.2c0.4,0.2,1,0.2,1.2,0.5c0.2,0.3,0.9,1.3,1.5,1.4
		c0.6,0.1,1,0.6,1.6,1.3c0.6,0.6,1.4,0.7,1.8,1.2c0.4,0.5,1.4,0.6,1.9,1.2c0.4,0.6,1,1.1,1.7,1.3c0.6,0.2,1.1,0.4,1.5,0.9
		c0.4,0.5,1.1,0.7,1.3,0.6C327,50.5,328.6,51.3,328.6,51z"/>
	<path id="birdr2" d="M281.1,19.8c0.2,0,1.7,0.1,2.3,0.7c0,0,0.7-0.1,0.9,0.2c0.2,0.3-0.2,0.1-0.6,0.3c-0.4,0.2-0.5,0.6-1.1,0.9
		c-0.5,0.4-0.7,0.7-0.7,0.7s1.1,1.7,1.9,2.3c0.8,0.7,0.8,0.6,1.1,1.8c0.3,1.1,0.9,4,1.2,4.7c0.3,0.7,0.3,2-0.1,1.8
		c-0.3-0.2-1-1.2-0.9-0.5c0.1,0.7,0.2,1.3-0.1,1.5c-0.4,0.1-0.6-1.2-0.8-0.8c-0.2,0.4,0,1.1-0.5,1.2c-0.5,0.1-0.1-1.6-0.5-1.6
		c-0.3,0.1-0.1,0.3-0.4,0.3c-0.3,0-0.4-1.4-0.8-1.5c-0.4-0.1-0.2,0.4-0.6,0c-0.4-0.4-0.6-1.4-0.8-1.4c-0.2-0.1-0.5,0.1-0.8,0
		c-0.3-0.1-0.4-0.8-0.8-1c-0.4-0.2-1.3-2.4-2-2.5c-0.7-0.1-1-0.6-1.1-1.1c-0.1-0.5-0.3-1-0.6-0.9c-0.3,0.1-3.8,3.5-4.4,4.3
		c-0.6,0.8-0.6,1.2-1,1c-0.4-0.3-0.3-0.7-0.3-0.9c0-0.3,0-0.6-0.2-0.8c-0.1-0.2,0.1-0.5,0-0.8c-0.1-0.3,0-1.6-0.2-1.5
		c-0.2,0.1,0-0.2-0.2-0.5c-0.2-0.4-0.3-0.4-0.6-0.7c-0.3-0.2-0.1-0.4-0.7-0.8c-0.6-0.4-0.5-0.2-0.8-0.7c-0.3-0.5,0-0.4-0.5-0.7
		c-0.5-0.4-1.2-0.8-0.7-1c0.5-0.2,0.9-0.1,1.7,0.1c0.8,0.2,4.9,0.3,6,0.1c1.1-0.2,1-0.4,0.8-0.7c-0.2-0.3-0.9-0.8-0.7-1.2
		c0.2-0.4,0.3-0.5-0.1-0.9c-0.4-0.5-0.5-2.5-0.3-2.9c0.2-0.4,0.3-0.9,0.2-1.3c-0.1-0.4-0.5-1.5,0-2.1c0.5-0.6,0.4-0.8,0.2-1.1
		c-0.1-0.3,0.3-0.5,0.3-1.5c0-1,0-0.7-0.3-1.3c-0.3-0.6-0.9-1.8-0.6-2c0.4-0.2,1.1,1.1,1.4,1.1c0.5,0.1-1.1-2.5-0.7-2.7
		c0.4-0.2,1.6,1.6,1.8,1.4c0.2-0.1-0.8-1.9-0.3-2.1c0.5-0.2,1.4,1.8,1.7,1.7c0.2-0.1-0.2-0.8,0.2-0.9c0.4-0.1,1.4,1.4,1.8,2.5
		c0.4,1.1,1.1,3.8,1.4,4.3c0.3,0.6,0.7,1,0.4,2.2C280,15.8,280.3,19.8,281.1,19.8z"/>
	<path id="birdr1" d="M339.1,54.2c0.2,0,1.7,0.1,2.3,0.7c0,0,0.7-0.1,0.9,0.2c0.2,0.3-0.2,0.1-0.6,0.3c-0.4,0.2-0.5,0.6-1.1,0.9
		c-0.5,0.4-0.7,0.7-0.7,0.7s1.1,1.7,1.9,2.3c0.8,0.7,0.8,0.6,1.1,1.8c0.3,1.1,0.9,4,1.2,4.7c0.3,0.7,0.3,2-0.1,1.8
		c-0.3-0.2-1-1.2-0.9-0.5c0.1,0.7,0.2,1.3-0.1,1.5c-0.4,0.1-0.6-1.2-0.8-0.8c-0.2,0.4,0,1.1-0.5,1.2c-0.5,0.1-0.1-1.6-0.5-1.6
		c-0.3,0.1-0.1,0.3-0.4,0.3c-0.3,0-0.4-1.4-0.8-1.5c-0.4-0.1-0.2,0.4-0.6,0c-0.4-0.4-0.6-1.4-0.8-1.4c-0.2-0.1-0.5,0.1-0.8,0
		c-0.3-0.1-0.4-0.8-0.8-1c-0.4-0.2-1.3-2.4-2-2.5c-0.7-0.1-1-0.6-1.1-1.1c-0.1-0.5-0.3-1-0.6-0.9c-0.3,0.1-3.8,3.5-4.4,4.3
		c-0.6,0.8-0.6,1.2-1,1c-0.4-0.3-0.3-0.7-0.3-0.9c0-0.3,0-0.6-0.2-0.8c-0.1-0.2,0.1-0.5,0-0.8c-0.1-0.3,0-1.6-0.2-1.5
		c-0.2,0.1,0-0.2-0.2-0.5c-0.2-0.4-0.3-0.4-0.6-0.7c-0.3-0.2-0.1-0.4-0.7-0.8c-0.6-0.4-0.5-0.2-0.8-0.7c-0.3-0.5,0-0.4-0.5-0.7
		c-0.5-0.4-1.2-0.8-0.7-1c0.5-0.2,0.9-0.1,1.7,0.1c0.8,0.2,4.9,0.3,6,0.1c1.1-0.2,1-0.4,0.8-0.7c-0.2-0.3-0.9-0.8-0.7-1.2
		c0.2-0.4,0.3-0.5-0.1-0.9c-0.4-0.5-0.5-2.5-0.3-2.9c0.2-0.4,0.3-0.9,0.2-1.3c-0.1-0.4-0.5-1.5,0-2.1c0.5-0.6,0.4-0.8,0.2-1.1
		c-0.1-0.3,0.3-0.5,0.3-1.5c0-1,0-0.7-0.3-1.3c-0.3-0.6-0.9-1.8-0.6-2c0.4-0.2,1.1,1.1,1.4,1.1c0.5,0.1-1.1-2.5-0.7-2.7
		c0.4-0.2,1.6,1.6,1.8,1.4c0.2-0.1-0.8-1.9-0.3-2.1c0.5-0.2,1.4,1.8,1.7,1.7c0.2-0.1-0.2-0.8,0.2-0.9c0.4-0.1,1.4,1.4,1.8,2.5
		c0.4,1.1,1.1,3.8,1.4,4.3c0.3,0.6,0.7,1,0.4,2.2C338,50.2,338.3,54.1,339.1,54.2z"/>
</g>
</svg>
